<svg width="260" height="233" viewBox="0 0 260 233" fill="none" xmlns="http://www.w3.org/2000/svg">
<path d="M94.7337 172.804C94.3514 172.93 93.9347 172.899 93.5751 172.718C93.2156 172.537 92.9427 172.221 92.8166 171.838C92.6904 171.456 92.7213 171.039 92.9024 170.68C93.0835 170.32 93.4001 170.047 93.7824 169.921C94.1647 169.795 94.5814 169.826 94.941 170.007C95.3005 170.188 95.5734 170.505 95.6995 170.887C95.8257 171.269 95.7948 171.686 95.6137 172.045C95.4326 172.405 95.116 172.678 94.7337 172.804ZM83.2019 176.091C82.8433 176.209 82.5279 176.431 82.296 176.729C82.0641 177.027 81.9261 177.387 81.8996 177.764C81.8731 178.141 81.9593 178.517 82.1472 178.845C82.3352 179.172 82.6163 179.436 82.9549 179.604C83.2935 179.771 83.6742 179.834 84.0486 179.784C84.4229 179.734 84.774 179.574 85.0571 179.324C85.3402 179.074 85.5425 178.745 85.6382 178.38C85.734 178.015 85.7188 177.629 85.5948 177.273C85.517 177.033 85.392 176.812 85.227 176.623C85.0621 176.433 84.8606 176.278 84.6346 176.168C84.4087 176.058 84.1628 175.994 83.9117 175.981C83.6606 175.967 83.4094 176.005 83.1731 176.091H83.2019ZM78.5027 159.139C78.2194 159.232 77.9581 159.382 77.7348 159.58C77.5115 159.777 77.3308 160.018 77.204 160.288C77.0771 160.558 77.0067 160.851 76.997 161.149C76.9874 161.447 77.0386 161.744 77.1477 162.022C77.3043 162.42 77.5741 162.764 77.9239 163.011C78.2737 163.257 78.6881 163.396 79.1159 163.41C79.5437 163.424 79.9662 163.312 80.3312 163.089C80.6963 162.865 80.9878 162.54 81.1699 162.152C81.3519 161.765 81.4166 161.333 81.3557 160.909C81.2949 160.485 81.1113 160.089 80.8276 159.768C80.5439 159.448 80.1726 159.217 79.7594 159.105C79.3462 158.994 78.9094 159.005 78.5027 159.139ZM87.3822 165.135C87.1629 165.207 86.9601 165.321 86.7857 165.472C86.6114 165.623 86.4689 165.808 86.3669 166.015C86.2648 166.221 86.2051 166.447 86.1913 166.677C86.1776 166.907 86.21 167.138 86.2867 167.355C86.3971 167.686 86.6032 167.976 86.8789 168.189C87.1546 168.403 87.4874 168.529 87.8351 168.553C88.1828 168.576 88.5297 168.496 88.8318 168.322C89.1339 168.149 89.3775 167.889 89.5317 167.576C89.686 167.264 89.7439 166.913 89.6981 166.567C89.6523 166.222 89.5049 165.898 89.2746 165.636C89.0442 165.374 88.7414 165.187 88.4045 165.098C88.0675 165.009 87.7117 165.022 87.3822 165.135ZM93.9842 163.55C94.3665 163.424 94.683 163.151 94.8641 162.791C95.0452 162.432 95.0761 162.015 94.95 161.633C94.8238 161.25 94.5509 160.934 94.1914 160.753C93.8319 160.572 93.4151 160.541 93.0328 160.667C92.6505 160.793 92.334 161.066 92.1528 161.425C91.9717 161.785 91.9408 162.202 92.067 162.584C92.1932 162.966 92.466 163.283 92.8256 163.464C93.1851 163.645 93.6019 163.676 93.9842 163.55ZM78.0703 170.094C77.803 170.182 77.556 170.322 77.3438 170.506C77.1316 170.691 76.9586 170.916 76.835 171.169C76.7113 171.422 76.6396 171.696 76.624 171.977C76.6084 172.258 76.6492 172.539 76.7441 172.804C76.8321 173.072 76.9721 173.319 77.1562 173.532C77.3403 173.746 77.5649 173.92 77.8168 174.046C78.0687 174.172 78.3431 174.247 78.6242 174.266C78.9052 174.286 79.1872 174.249 79.4541 174.159C79.7374 174.066 79.9987 173.916 80.222 173.718C80.4454 173.521 80.626 173.279 80.7528 173.01C80.8797 172.74 80.9501 172.447 80.9598 172.149C80.9695 171.851 80.9182 171.554 80.8091 171.276C80.5975 170.76 80.1925 170.348 79.6806 170.127C79.1687 169.906 78.5907 169.894 78.0703 170.094ZM64.8664 168.278C64.6108 168.372 64.3764 168.516 64.1765 168.702C63.9767 168.887 63.8152 169.11 63.7014 169.357C63.5877 169.605 63.5238 169.873 63.5134 170.145C63.5031 170.417 63.5465 170.689 63.6411 170.945C63.7358 171.2 63.8798 171.434 64.0651 171.634C64.2503 171.834 64.4731 171.996 64.7207 172.109C64.9684 172.223 65.236 172.287 65.5083 172.297C65.7806 172.308 66.0523 172.264 66.3078 172.17C66.8148 171.987 67.2306 171.613 67.4673 171.129C67.7041 170.645 67.7432 170.088 67.5763 169.575C67.4898 169.308 67.3494 169.062 67.1637 168.852C66.978 168.641 66.751 168.471 66.4969 168.352C66.2427 168.233 65.9669 168.168 65.6864 168.16C65.4059 168.152 65.1268 168.202 64.8664 168.307V168.278ZM110.013 155.795C114.684 152.912 117.019 148.731 115.26 146.598C113.502 144.465 108.312 145.128 103.729 148.068C99.1446 151.009 96.723 155.16 98.4816 157.265C100.24 159.369 105.372 158.764 110.013 155.823V155.795ZM150.634 155.968C155.391 158.851 160.465 159.341 161.993 157.121C163.521 154.901 160.926 150.749 156.227 147.895C151.528 145.041 146.396 144.522 144.695 146.771C142.994 149.02 145.906 153.142 150.634 155.996V155.968ZM74.9567 165.107C74.6454 165.218 74.3885 165.444 74.2384 165.739C74.0884 166.034 74.0566 166.375 74.1495 166.692C74.2611 167.01 74.492 167.272 74.7933 167.423C75.0946 167.573 75.4427 167.601 75.7639 167.499C76.081 167.388 76.3411 167.156 76.4871 166.853C76.633 166.55 76.6529 166.202 76.5423 165.885C76.4904 165.729 76.4079 165.585 76.2998 165.461C76.1917 165.337 76.06 165.236 75.9124 165.164C75.7649 165.091 75.6044 165.049 75.4403 165.039C75.2762 165.029 75.1118 165.052 74.9567 165.107ZM259.465 116.5C259.465 180.847 201.374 233 129.733 233C58.0914 233 0 180.847 0 116.5C0 52.1526 58.0914 0 129.733 0C201.374 0 259.465 52.1526 259.465 116.5ZM242.975 119.815C242.975 62.7618 191.457 16.5193 127.945 16.5193C64.4339 16.5193 12.9444 62.7618 12.9444 119.815C12.9444 176.869 64.4339 223.111 127.945 223.111C191.457 223.111 242.975 176.869 242.975 119.815ZM70.8341 174.418C70.4763 174.543 70.182 174.803 70.0148 175.143C69.8475 175.483 69.8208 175.875 69.9404 176.235C70.0591 176.598 70.3171 176.899 70.6576 177.072C70.9982 177.245 71.3934 177.276 71.7566 177.157C72.1165 177.027 72.4112 176.761 72.5781 176.416C72.745 176.072 72.7709 175.676 72.6503 175.312C72.5258 174.954 72.2654 174.66 71.9255 174.493C71.5856 174.326 71.1935 174.299 70.8341 174.418ZM128.781 202.816C110.013 202.816 94.7914 204.459 94.7914 206.506C94.7914 208.553 110.013 210.196 128.781 210.196C147.549 210.196 162.8 208.553 162.8 206.506C162.8 204.459 147.578 202.816 128.781 202.816ZM182.52 171.651C182.076 171.546 181.61 171.621 181.221 171.859C180.832 172.096 180.553 172.477 180.444 172.919C180.362 173.252 180.38 173.602 180.497 173.924C180.614 174.247 180.824 174.527 181.101 174.73C181.377 174.933 181.708 175.048 182.051 175.063C182.393 175.077 182.732 174.989 183.025 174.811C183.318 174.632 183.55 174.37 183.694 174.058C183.838 173.747 183.885 173.4 183.831 173.061C183.777 172.723 183.623 172.408 183.39 172.157C183.156 171.906 182.853 171.729 182.52 171.651ZM191.947 172.516C191.758 172.472 191.561 172.466 191.37 172.499C191.178 172.531 190.995 172.6 190.83 172.703C190.666 172.807 190.523 172.941 190.41 173.099C190.298 173.257 190.217 173.436 190.174 173.626C190.13 173.815 190.124 174.011 190.157 174.203C190.189 174.394 190.258 174.577 190.362 174.742C190.465 174.907 190.599 175.049 190.757 175.162C190.916 175.275 191.094 175.355 191.284 175.399C191.662 175.478 192.055 175.408 192.383 175.204C192.71 175 192.947 174.677 193.042 174.303C193.089 174.114 193.098 173.917 193.069 173.724C193.039 173.531 192.971 173.346 192.869 173.18C192.767 173.014 192.633 172.869 192.475 172.755C192.316 172.641 192.137 172.56 191.947 172.516ZM181.626 164.616C181.756 164.055 181.66 163.464 181.357 162.973C181.055 162.482 180.572 162.13 180.011 161.993C179.45 161.87 178.863 161.97 178.374 162.271C177.885 162.572 177.531 163.051 177.388 163.607C177.32 164.143 177.453 164.685 177.761 165.129C178.068 165.573 178.529 165.888 179.054 166.013C179.58 166.138 180.133 166.065 180.607 165.807C181.082 165.549 181.445 165.125 181.626 164.616ZM186.094 179.031C185.712 178.944 185.311 179.01 184.977 179.215C184.643 179.419 184.403 179.747 184.307 180.127C184.242 180.409 184.261 180.704 184.363 180.976C184.465 181.247 184.645 181.482 184.88 181.651C185.115 181.82 185.395 181.917 185.685 181.927C185.974 181.938 186.261 181.863 186.508 181.712C186.755 181.56 186.952 181.339 187.073 181.076C187.195 180.813 187.237 180.52 187.193 180.234C187.148 179.948 187.021 179.681 186.825 179.467C186.63 179.253 186.376 179.101 186.094 179.031ZM170.959 163.031C171.057 162.643 171.037 162.234 170.902 161.857C170.767 161.48 170.523 161.152 170.201 160.914C169.879 160.676 169.493 160.539 169.093 160.521C168.693 160.503 168.297 160.605 167.955 160.812C167.613 161.02 167.34 161.325 167.171 161.688C167.003 162.051 166.946 162.457 167.009 162.852C167.071 163.248 167.25 163.616 167.522 163.909C167.794 164.203 168.148 164.409 168.537 164.501C169.053 164.623 169.596 164.537 170.049 164.262C170.503 163.987 170.829 163.545 170.959 163.031ZM163.117 169.114C162.847 169.049 162.563 169.066 162.302 169.161C162.041 169.257 161.814 169.428 161.649 169.652C161.484 169.877 161.39 170.144 161.377 170.422C161.364 170.7 161.434 170.976 161.577 171.214C161.72 171.453 161.93 171.644 162.182 171.763C162.433 171.883 162.714 171.925 162.989 171.886C163.265 171.846 163.522 171.726 163.73 171.541C163.937 171.355 164.085 171.113 164.155 170.844C164.243 170.477 164.183 170.09 163.989 169.767C163.795 169.444 163.482 169.209 163.117 169.114ZM172.66 172.141C172.752 171.752 172.727 171.345 172.588 170.971C172.448 170.596 172.201 170.272 171.877 170.038C171.553 169.804 171.167 169.672 170.768 169.658C170.368 169.644 169.974 169.749 169.634 169.959C169.295 170.169 169.025 170.475 168.859 170.839C168.694 171.203 168.64 171.607 168.705 172.001C168.77 172.396 168.95 172.762 169.223 173.054C169.496 173.345 169.849 173.549 170.238 173.64C170.758 173.761 171.305 173.672 171.759 173.391C172.212 173.11 172.537 172.66 172.66 172.141ZM174.447 176.264C174.087 176.171 173.707 176.187 173.356 176.311C173.005 176.435 172.699 176.66 172.477 176.958C172.254 177.257 172.126 177.615 172.108 177.986C172.089 178.358 172.182 178.727 172.374 179.045C172.566 179.364 172.849 179.618 173.186 179.776C173.523 179.933 173.9 179.987 174.267 179.93C174.635 179.873 174.977 179.707 175.251 179.455C175.524 179.202 175.716 178.874 175.802 178.512C175.916 178.035 175.838 177.531 175.584 177.111C175.331 176.69 174.923 176.386 174.447 176.264Z" fill="#064658"/>
</svg>
