<svg width="228" height="228" viewBox="0 0 228 228" fill="none" xmlns="http://www.w3.org/2000/svg">
<path d="M114 0C91.453 0 69.4122 6.68598 50.665 19.2125C31.9178 31.7389 17.3062 49.5433 8.67778 70.3741C0.0493946 91.2048 -2.20819 114.126 2.19053 136.24C6.58924 158.354 17.4467 178.667 33.3899 194.61C49.333 210.553 69.6459 221.411 91.7597 225.809C113.874 230.208 136.795 227.951 157.626 219.322C178.457 210.694 196.261 196.082 208.788 177.335C221.314 158.588 228 136.547 228 114C228 83.7653 215.989 54.769 194.61 33.3898C173.231 12.0107 144.235 0 114 0ZM119.725 213.003C99.6958 213.183 80.0641 207.409 63.322 196.413C46.58 185.416 33.4825 169.694 25.6919 151.24C17.9014 132.787 15.7691 112.435 19.5657 92.7679C23.3623 73.1006 32.9166 55.0047 47.0159 40.777C61.1151 26.5494 79.1237 16.8315 98.7558 12.8568C118.388 8.88212 138.758 10.8299 157.281 18.4528C175.805 26.0758 191.645 39.0303 202.793 55.672C213.941 72.3137 219.893 91.8922 219.893 111.923C219.947 125.146 217.395 138.249 212.383 150.486C207.371 162.722 199.998 173.852 190.684 183.238C181.371 192.625 170.299 200.085 158.102 205.192C145.905 210.299 132.822 212.953 119.599 213.003H119.725ZM187.391 107.869C191.216 111.213 190.279 117.623 188.556 121.853C164.261 181.387 80.256 170.873 70.1987 106.4C69.1347 99.6106 70.0467 94.5693 77.7987 91.6813C102.423 82.5866 164.489 87.856 187.264 107.869H187.391ZM193.344 63.1306L185.744 59.28C185.322 59.054 184.977 58.7058 184.756 58.281C184.534 57.8561 184.446 57.3744 184.503 56.8986L185.313 47.6013C185.438 46.4565 185.229 45.2999 184.713 44.2708C184.196 43.2417 183.393 42.3837 182.4 41.8C181.477 41.2253 180.379 41.0013 179.305 41.1687C178.23 41.3361 177.252 41.8838 176.548 42.712L170.519 49.6533C170.204 49.9956 169.786 50.2254 169.329 50.3078C168.871 50.3901 168.399 50.3204 167.985 50.1093L158.84 45.6C157.782 44.9976 156.549 44.7747 155.347 44.9682C154.144 45.1616 153.044 45.7599 152.228 46.664C151.463 47.6196 151.027 48.7971 150.986 50.0208C150.945 51.2444 151.301 52.4485 152 53.4533L157.447 62.32C157.682 62.779 157.772 63.2992 157.704 63.8108C157.637 64.3223 157.414 64.801 157.067 65.1826L150.784 72.4786C149.999 73.3645 149.536 74.49 149.472 75.6722C149.407 76.8543 149.745 78.0234 150.429 78.9893C151.065 80.0054 152.003 80.7965 153.112 81.251C154.221 81.7055 155.445 81.8005 156.611 81.5226L165.731 79.268C166.206 79.1453 166.708 79.1774 167.163 79.3596C167.619 79.5419 168.005 79.8648 168.264 80.2813L172.9 87.8813C173.439 88.7724 174.259 89.4587 175.231 89.832C176.185 90.2053 177.237 90.2499 178.22 89.9586C179.235 89.6826 180.138 89.0978 180.805 88.2853C181.473 87.4728 181.87 86.4728 181.944 85.424L182.704 76.7093C182.739 76.2534 182.913 75.8193 183.203 75.4659C183.493 75.1124 183.885 74.8567 184.325 74.7333L192.255 72.7826C193.239 72.5234 194.117 71.9603 194.763 71.1734C195.408 70.3866 195.79 69.416 195.852 68.4C196.017 67.3566 195.852 66.2878 195.379 65.343C194.907 64.3982 194.151 63.6247 193.217 63.1306H193.344ZM187.467 69.7173L181.691 71.1866C181.366 71.2772 181.079 71.4682 180.869 71.7321C180.66 71.996 180.54 72.3194 180.525 72.656L179.867 79.2173C179.827 79.9733 179.566 80.7008 179.115 81.3091C178.665 81.9174 178.045 82.3794 177.333 82.6373C176.63 82.8928 175.858 82.8928 175.155 82.6373C174.449 82.3381 173.855 81.824 173.457 81.168L170.088 75.4426C169.911 75.1377 169.64 74.8986 169.316 74.7615C168.991 74.6244 168.631 74.5967 168.289 74.6826L161.652 76.38C160.797 76.5877 159.898 76.5218 159.082 76.1915C158.266 75.8612 157.574 75.2833 157.104 74.539C156.634 73.7948 156.409 72.9219 156.462 72.0432C156.514 71.1645 156.841 70.3244 157.396 69.6413L161.981 64.144C162.199 63.8272 162.316 63.4518 162.316 63.0673C162.316 62.6828 162.199 62.3074 161.981 61.9906L158.004 55.328C157.492 54.5408 157.243 53.6112 157.293 52.6732C157.343 51.7353 157.689 50.8375 158.283 50.1093C158.865 49.4346 159.667 48.9862 160.547 48.8426C161.427 48.6991 162.329 48.8694 163.096 49.324L169.733 52.7186C170.046 52.9005 170.412 52.9672 170.768 52.907C171.125 52.8469 171.449 52.6637 171.684 52.3893L176.041 47.1453C176.537 46.52 177.249 46.103 178.036 45.9764C178.824 45.8498 179.631 46.0228 180.297 46.4613C181.021 46.9235 181.602 47.5787 181.973 48.353C182.345 49.1274 182.492 49.9901 182.4 50.844L181.792 57.836C181.757 58.1915 181.824 58.5497 181.986 58.8684C182.147 59.1871 182.396 59.4529 182.704 59.6347L188.151 62.5226C188.807 62.9145 189.332 63.4915 189.661 64.1811C189.99 64.8707 190.108 65.6422 190 66.3986C189.961 67.1426 189.698 67.8574 189.246 68.4496C188.794 69.0418 188.174 69.4836 187.467 69.7173ZM128.744 49.4507C129.768 48.7006 130.517 47.6341 130.874 46.4161C131.231 45.198 131.177 43.8963 130.72 42.712C130.315 41.4847 129.55 40.4079 128.524 39.6216C127.498 38.8354 126.26 38.3763 124.969 38.304L114.532 37.848C113.965 37.8205 113.419 37.6218 112.967 37.2781C112.515 36.9344 112.177 36.4619 111.999 35.9227L108.68 25.7893C108.288 24.5613 107.529 23.4829 106.505 22.6994C105.482 21.9158 104.242 21.4646 102.955 21.4067C101.705 21.299 100.456 21.612 99.4046 22.2959C98.3535 22.9798 97.5611 23.9954 97.1533 25.1813L93.7334 35.036C93.5616 35.5651 93.2204 36.0229 92.7626 36.3388C92.3047 36.6547 91.7556 36.8112 91.2 36.784L80.18 36.3027C78.8409 36.2217 77.5111 36.5715 76.3851 37.3008C75.2592 38.0302 74.3963 39.1008 73.9227 40.356C73.434 41.6173 73.3726 43.0041 73.7479 44.3037C74.1231 45.6033 74.9143 46.7439 76 47.5507L84.9427 54.4667C85.4129 54.8282 85.7568 55.3291 85.9252 55.8979C86.0935 56.4667 86.0777 57.0741 85.88 57.6333L82.08 68.5266C81.5828 69.8622 81.5287 71.3223 81.9256 72.691C82.3225 74.0597 83.1494 75.2643 84.284 76.1266C85.3807 76.9997 86.7333 77.4891 88.1347 77.52C89.5388 77.5112 90.9042 77.059 92.036 76.228L101.257 69.5146C101.728 69.1591 102.302 68.9668 102.891 68.9668C103.481 68.9668 104.055 69.1591 104.525 69.5146L113.519 76.456C114.571 77.2903 115.874 77.7443 117.217 77.7443C118.56 77.7443 119.864 77.2903 120.916 76.456C121.991 75.6225 122.776 74.4709 123.158 73.1653C123.54 71.8598 123.5 70.4669 123.044 69.1853L119.523 58.444C119.332 57.9061 119.318 57.3215 119.481 56.7748C119.645 56.2282 119.979 55.748 120.435 55.404L128.744 49.4507ZM115.773 55.7333L118.307 63.8653C118.637 64.8426 118.661 65.8974 118.376 66.8889C118.091 67.8803 117.51 68.761 116.711 69.4133C115.918 70.0421 114.936 70.3844 113.924 70.3844C112.912 70.3844 111.93 70.0421 111.137 69.4133L104.373 64.144C104.012 63.8605 103.566 63.7064 103.107 63.7064C102.647 63.7064 102.201 63.8605 101.84 64.144L94.924 69.2106C94.077 69.846 93.0441 70.1844 91.9854 70.1733C90.9327 70.165 89.9142 69.7987 89.0974 69.1346C88.2638 68.4522 87.6695 67.5218 87.4008 66.4786C87.132 65.4353 87.2027 64.3336 87.6027 63.3333L90.4654 55.1C90.6394 54.6581 90.6643 54.1715 90.5362 53.7142C90.4082 53.2569 90.1342 52.8539 89.756 52.5667L83.0427 47.348C82.2822 46.7206 81.7352 45.8727 81.4771 44.9212C81.219 43.9697 81.2625 42.9616 81.6017 42.0359C81.9408 41.1102 82.5589 40.3126 83.3706 39.753C84.1823 39.1935 85.1476 38.8996 86.1334 38.912L94.4174 39.2667C94.8424 39.2938 95.2645 39.1792 95.6174 38.9408C95.9704 38.7024 96.2344 38.3537 96.368 37.9493L98.9014 30.3493C99.2075 29.4566 99.8016 28.6909 100.59 28.1727C101.379 27.6545 102.318 27.4132 103.259 27.4867C104.228 27.5379 105.16 27.8827 105.929 28.4754C106.698 29.0681 107.269 29.8807 107.565 30.8053L110.099 38.4053C110.234 38.8113 110.486 39.1678 110.825 39.4295C111.163 39.6912 111.572 39.8462 111.999 39.8747L119.852 40.2293C120.824 40.2825 121.758 40.6276 122.53 41.2197C123.303 41.8118 123.88 42.6232 124.184 43.548C124.511 44.4411 124.543 45.4159 124.274 46.3282C124.005 47.2406 123.449 48.0422 122.689 48.6147L116.533 53.4787C116.191 53.7314 115.934 54.0832 115.799 54.4864C115.663 54.8896 115.654 55.3249 115.773 55.7333Z" fill="#064658"/>
</svg>
