<svg width="47" height="47" viewBox="0 0 47 47" fill="none" xmlns="http://www.w3.org/2000/svg">
<path fill-rule="evenodd" clip-rule="evenodd" d="M23.5 47C36.4787 47 47 36.4787 47 23.5C47 10.5213 36.4787 0 23.5 0C10.5213 0 0 10.5213 0 23.5C0 36.4787 10.5213 47 23.5 47ZM28.9856 4.77308C28.7487 4.53285 28.4254 4.3976 28.088 4.3976C27.7506 4.3976 27.4273 4.53285 27.1904 4.77309L18.0144 14.0788C17.6576 14.4407 17.553 14.9815 17.7491 15.4503C17.9453 15.9192 18.4038 16.2244 18.912 16.2244H22.2395L22.2394 31.648C22.2394 31.9824 22.3722 32.303 22.6086 32.5394C22.845 32.7758 23.1657 32.9086 23.5 32.9086H25.0746L18.912 39.1583L12.7493 32.9086H14.324C14.6583 32.9086 14.979 32.7758 15.2154 32.5394C15.4518 32.303 15.5846 31.9823 15.5846 31.648L15.5845 23.3061C15.5845 22.6099 15.0201 22.0455 14.3239 22.0455C13.6278 22.0455 13.0634 22.6099 13.0634 23.3061L13.0634 30.3875H9.73601C9.22777 30.3875 8.76924 30.6927 8.5731 31.1616C8.37696 31.6304 8.48157 32.1712 8.83842 32.5331L18.0144 41.8388C18.2513 42.079 18.5746 42.2143 18.912 42.2143C19.2494 42.2143 19.5727 42.079 19.8096 41.8388L28.9855 32.5331C29.3424 32.1712 29.447 31.6304 29.2509 31.1616C29.0547 30.6927 28.5962 30.3875 28.0879 30.3875H24.7605L24.7606 14.9639C24.7606 14.6295 24.6278 14.3089 24.3914 14.0725C24.155 13.8361 23.8343 13.7033 23.5 13.7033H21.9253L28.088 7.45351L34.2507 13.7033H32.676C32.3417 13.7033 32.021 13.8361 31.7846 14.0725C31.5482 14.3089 31.4154 14.6295 31.4154 14.9639L31.4155 23.3061C31.4155 24.0023 31.9799 24.5667 32.6761 24.5667C33.3723 24.5667 33.9366 24.0023 33.9366 23.3061L33.9366 16.2244H37.264C37.7722 16.2244 38.2308 15.9192 38.4269 15.4503C38.623 14.9815 38.5184 14.4407 38.1616 14.0788L28.9856 4.77308Z" fill="#064658"/>
</svg>
