<svg width="34" height="34" viewBox="0 0 34 34" fill="none" xmlns="http://www.w3.org/2000/svg">
<path fill-rule="evenodd" clip-rule="evenodd" d="M17 34C26.3888 34 34 26.3888 34 17C34 7.61116 26.3888 0 17 0C7.61116 0 0 7.61116 0 17C0 26.3888 7.61116 34 17 34ZM21.4808 23.1036V24.4182H22.4214V23.1045C23.1799 23.0648 23.8413 22.9254 24.4057 22.6862C25.0863 22.3956 25.6062 21.9885 25.9656 21.4647C26.3289 20.937 26.5124 20.3138 26.5162 19.595C26.5124 19.1056 26.4225 18.6717 26.2467 18.2931C26.0746 17.9146 25.8318 17.5858 25.5183 17.3067C25.2048 17.0276 24.8339 16.7925 24.4057 16.6013C23.9775 16.4101 23.5072 16.2572 22.9949 16.1425L22.4214 16.0054V13.1477C22.8091 13.198 23.1302 13.3169 23.3848 13.5044C23.7328 13.7605 23.9297 14.1199 23.9756 14.5825H26.3556C26.3442 13.8829 26.1568 13.2673 25.7936 12.7359C25.4304 12.2044 24.9219 11.7896 24.2681 11.4913C23.7288 11.2439 23.1132 11.0991 22.4214 11.057V9.7364H21.4808V11.062C20.8257 11.1099 20.2293 11.253 19.6915 11.4913C19.0185 11.7896 18.489 12.2044 18.1028 12.7359C17.7205 13.2673 17.5312 13.8886 17.5351 14.5998C17.5312 15.4677 17.8161 16.1578 18.3896 16.6701C18.9631 17.1825 19.745 17.5591 20.7352 17.7999L21.4808 17.9872V21.009C21.2277 20.979 20.9926 20.9225 20.7754 20.8395C20.4389 20.7057 20.1694 20.5088 19.9667 20.2488C19.7679 19.985 19.6551 19.6562 19.6284 19.2624H17.2254C17.2445 20.1073 17.449 20.8166 17.839 21.3901C18.2328 21.9598 18.7796 22.3899 19.4793 22.6805C20.0624 22.9213 20.7296 23.0624 21.4808 23.1036ZM22.4214 21.0032C22.6412 20.9735 22.8419 20.9228 23.0235 20.851C23.3371 20.7287 23.5798 20.5585 23.7519 20.3406C23.9239 20.1226 24.01 19.8722 24.01 19.5893C24.01 19.3255 23.9316 19.1037 23.7748 18.924C23.6219 18.7443 23.3963 18.5914 23.0981 18.4652C22.9022 18.3812 22.6766 18.3023 22.4214 18.2285V21.0032ZM21.4808 15.7703V13.1519C21.2806 13.18 21.1009 13.2267 20.9417 13.2922C20.6626 13.403 20.4485 13.5579 20.2994 13.7567C20.1541 13.9555 20.0814 14.1811 20.0814 14.4334C20.0738 14.6437 20.1178 14.8272 20.2133 14.984C20.3128 15.1408 20.4485 15.2765 20.6205 15.3912C20.7926 15.5021 20.9914 15.5996 21.217 15.6837C21.3027 15.7142 21.3907 15.7431 21.4808 15.7703ZM7.00544 11.2046V22.95H9.48874V18.7864H11.3014L13.5262 22.95H16.2676L13.7756 18.387C13.8114 18.3715 13.8468 18.3555 13.8818 18.339C14.5203 18.0408 15.0078 17.6126 15.3443 17.0544C15.6807 16.4923 15.8489 15.8213 15.8489 15.0414C15.8489 14.2652 15.6826 13.5904 15.35 13.0169C15.0212 12.4395 14.5413 11.9941 13.9105 11.6806C13.2835 11.3633 12.5264 11.2046 11.6394 11.2046H7.00544ZM9.48874 16.7906H11.1749C11.649 16.7906 12.0428 16.7256 12.3563 16.5956C12.6698 16.4656 12.903 16.2706 13.056 16.0106C13.2127 15.7506 13.2911 15.4275 13.2911 15.0414C13.2911 14.6514 13.2127 14.3226 13.056 14.0549C12.903 13.7873 12.6679 13.5846 12.3505 13.447C12.037 13.3055 11.6413 13.2348 11.1634 13.2348H9.48874V16.7906Z" fill="#064658"/>
</svg>
