<svg width="29" height="27" viewBox="0 0 29 27" fill="none" xmlns="http://www.w3.org/2000/svg">
<path fill-rule="evenodd" clip-rule="evenodd" d="M11.231 13.3329C11.231 10.085 11.2495 7.43213 11.2773 7.43213C11.2872 7.43213 21.0526 13.2511 20.9119 13.3913C20.8191 13.4791 11.3331 19.2335 11.2774 19.2335C11.2496 19.2335 11.231 16.5807 11.231 13.3329Z" fill="#064658"/>
<path fill-rule="evenodd" clip-rule="evenodd" d="M0 24.5014V26.8346C4.45458 26.8346 14.8336 26.8356 16.5216 26.6167C23.5665 25.7194 27.0936 22.9007 28.2167 17.2536C28.7922 14.3763 28.6065 10.3677 27.7805 7.82213C26.4995 3.87206 23.3623 1.45323 18.378 0.546196C16.0111 0.117069 15.4541 0.0975502 7.59249 0.0487762L0 0V4.69357H3.60133C4.70517 4.70789 6.05176 4.72026 7.59249 4.73035C15.2871 4.76932 15.5935 4.77912 17.3013 5.24727C19.5104 5.85197 21.0883 7.07117 21.8958 8.81696C22.5733 10.2702 22.7868 11.6454 22.7125 14.0642C22.6754 15.3517 22.6198 15.8686 22.4341 16.6196C21.6544 19.7699 19.7053 21.311 15.6863 21.9351C14.8787 22.0619 13.4215 22.1009 7.36043 22.1302L0 22.1692V24.5014ZM0.00928879 13.5571C0.0186266 10.4263 0.0463173 7.77342 0.074281 7.64662C0.1392 7.43203 0.222695 7.47104 2.04207 8.58293C2.34928 8.76962 9.86947 13.2844 9.77374 13.3815C9.63446 13.5181 0.167039 19.2335 0.0835443 19.2335C0.0371032 19.2335 5.01041e-05 16.805 0.00928879 13.5571Z" fill="#064658"/>
</svg>
