<svg width="46" height="46" viewBox="0 0 46 46" fill="none" xmlns="http://www.w3.org/2000/svg">
<path fill-rule="evenodd" clip-rule="evenodd" d="M35.3495 22.8345C37.1358 22.8345 38.8323 22.4501 40.3607 21.7595V24.2486H29.5635C25.5967 24.2486 22.3567 27.4887 22.3567 31.4554C22.3567 35.4221 25.5967 38.6622 29.5635 38.6622H40.3607V46H4.09467C1.8427 46 0 44.1573 0 41.9053V39.2522H10.9074L12.7821 42.5599C12.9294 42.8193 13.2056 42.9595 13.4844 42.9463H20.0996C20.3703 43.4413 20.8958 43.7775 21.5 43.7775C22.3805 43.7775 23.095 43.0636 23.095 42.1826C23.095 41.3021 22.381 40.5877 21.5 40.5877C20.8958 40.5877 20.3703 40.9233 20.0996 41.4189H13.8931L12.0464 38.1605C11.924 37.8995 11.6589 37.7193 11.3517 37.7193H0V34.8143H10.3164C10.5875 35.3079 11.1121 35.6425 11.7148 35.6425C12.5953 35.6425 13.3097 34.9286 13.3097 34.0476C13.3097 33.1671 12.5958 32.4527 11.7148 32.4527C11.1121 32.4527 10.5875 32.7873 10.3164 33.2808H0V26.7991H6.04959L6.83561 30.1682C6.91635 30.5145 7.22558 30.7608 7.58153 30.7603L14.2455 30.7613C14.5167 31.2548 15.0412 31.5895 15.6439 31.5895C16.5244 31.5895 17.2388 30.8755 17.2388 29.9946C17.2388 29.1141 16.5249 28.3996 15.6439 28.3996C15.0412 28.3996 14.5167 28.7343 14.2455 29.2278H8.18832L7.41143 25.8989C7.34796 25.5394 7.03415 25.2662 6.65637 25.2662H0V22.7466H10.3164C10.5875 23.2402 11.1121 23.5748 11.7148 23.5748C12.5953 23.5748 13.3097 22.8609 13.3097 21.9799C13.3097 21.0994 12.5958 20.385 11.7148 20.385C11.1121 20.385 10.5875 20.7196 10.3164 21.2132H0V16.6691C1.02773 17.7603 2.48402 18.4438 4.09467 18.4438H25.9842C28.2189 21.1263 31.5844 22.8345 35.3495 22.8345ZM46 10.6505C46 16.5325 41.2315 21.301 35.3495 21.301C29.4675 21.301 24.699 16.5325 24.699 10.6505C24.699 4.76848 29.4675 0 35.3495 0C41.2315 0 46 4.76848 46 10.6505ZM39.5295 13.3701C39.4741 11.0562 37.4694 10.1834 35.482 9.85736C34.4919 9.69487 33.1107 9.32522 33.0518 8.1091C33.0016 7.0702 33.847 6.42737 34.7808 6.23898C36.0147 5.99068 37.2734 6.50759 37.7787 7.71101C37.9422 8.10149 38.3916 8.28479 38.782 8.12129C39.1725 7.95779 39.3558 7.50841 39.1923 7.11794C38.6394 5.80129 37.5157 4.94112 36.1167 4.71059V3.91035C36.1167 3.48686 35.7735 3.14361 35.35 3.14361C34.9265 3.14361 34.5833 3.48686 34.5833 3.91035V4.72227C32.8558 5.02896 31.4351 6.33394 31.525 8.1807C31.6255 10.2509 33.4449 11.0719 35.2373 11.3665C36.395 11.5564 37.9691 11.9697 38.0026 13.4057C38.0321 14.6451 36.4803 15.0955 35.4714 15.1194C34.2664 15.1483 32.9899 14.5903 32.6761 13.332C32.575 12.9218 32.1607 12.6709 31.7509 12.772C31.3407 12.873 31.0898 13.2874 31.1909 13.6971C31.5991 15.3347 32.9691 16.337 34.5838 16.5869V17.3891C34.5838 17.8126 34.927 18.1559 35.3505 18.1559C35.774 18.1559 36.1173 17.8126 36.1173 17.3891V16.6021C37.8528 16.3721 39.5757 15.323 39.5295 13.3701ZM29.5635 25.7816H40.3607V37.1287H29.5635C26.4432 37.1287 23.8896 34.5757 23.8896 31.4549C23.8896 28.3346 26.4427 25.7816 29.5635 25.7816ZM29.7589 29.4258C28.6383 29.4258 27.7299 30.3342 27.7299 31.4549C27.7299 32.5756 28.6383 33.484 29.7589 33.484C30.8796 33.484 31.788 32.5756 31.788 31.4549C31.788 30.3342 30.8796 29.4258 29.7589 29.4258ZM4.09467 16.9103H24.8955C23.7977 15.0808 23.166 12.9395 23.166 10.6505C23.166 9.99395 23.2189 9.34959 23.3189 8.72097H4.09467C1.8427 8.72097 0 10.5637 0 12.8156C0 15.0676 1.8427 16.9103 4.09467 16.9103Z" fill="#064658"/>
</svg>
