<svg width="24" height="24" viewBox="0 0 24 24" fill="none" xmlns="http://www.w3.org/2000/svg">
<path fill-rule="evenodd" clip-rule="evenodd" d="M18.4432 11.9136C19.3752 11.9136 20.2603 11.7131 21.0578 11.3528V12.6514H15.4244C13.3548 12.6514 11.6643 14.3419 11.6643 16.4115C11.6643 18.4811 13.3548 20.1716 15.4244 20.1716H21.0578V24H2.13635C0.961409 24 0 23.0386 0 21.8637V20.4794H5.69083L6.66893 22.2051C6.74576 22.3405 6.88988 22.4136 7.03532 22.4067H10.4868C10.628 22.665 10.9022 22.8404 11.2174 22.8404C11.6768 22.8404 12.0495 22.4679 12.0495 22.0083C12.0495 21.5489 11.6771 21.1762 11.2174 21.1762C10.9022 21.1762 10.628 21.3513 10.4868 21.6099H7.24859L6.28506 19.9098C6.22121 19.7737 6.08292 19.6796 5.92264 19.6796H0V18.164H5.38246C5.52393 18.4215 5.7976 18.5961 6.11206 18.5961C6.57144 18.5961 6.94419 18.2236 6.94419 17.764C6.94419 17.3046 6.57171 16.9318 6.11206 16.9318C5.7976 16.9318 5.52393 17.1064 5.38246 17.3639H0V13.9822H3.15631L3.56641 15.7399C3.60853 15.9206 3.76987 16.0491 3.95558 16.0488L7.43245 16.0494C7.57391 16.3069 7.84758 16.4815 8.16205 16.4815C8.62142 16.4815 8.99417 16.109 8.99417 15.6493C8.99417 15.19 8.62169 14.8172 8.16205 14.8172C7.84758 14.8172 7.57391 14.9918 7.43245 15.2493H4.27217L3.86683 13.5125C3.83372 13.3249 3.66999 13.1824 3.47289 13.1824H0V11.8678H5.38246C5.52393 12.1253 5.7976 12.2999 6.11206 12.2999C6.57144 12.2999 6.94419 11.9274 6.94419 11.4678C6.94419 11.0084 6.57171 10.6356 6.11206 10.6356C5.7976 10.6356 5.52393 10.8102 5.38246 11.0677H0V8.69693C0.536206 9.26625 1.29601 9.62284 2.13635 9.62284H13.557C14.7229 11.0224 16.4788 11.9136 18.4432 11.9136ZM24 5.55678C24 8.62566 21.5121 11.1136 18.4432 11.1136C15.3743 11.1136 12.8864 8.62566 12.8864 5.55678C12.8864 2.4879 15.3743 0 18.4432 0C21.5121 0 24 2.4879 24 5.55678ZM20.6241 6.97572C20.5952 5.76846 19.5493 5.31305 18.5124 5.14297C17.9958 5.0582 17.2752 4.86533 17.2444 4.23084C17.2182 3.6888 17.6593 3.35341 18.1465 3.25512C18.7903 3.12557 19.447 3.39527 19.7106 4.02314C19.7959 4.22686 20.0304 4.3225 20.2341 4.2372C20.4378 4.15189 20.5335 3.91743 20.4482 3.71371C20.1597 3.02676 19.5734 2.57798 18.8435 2.4577V2.04018C18.8435 1.81923 18.6644 1.64015 18.4435 1.64015C18.2225 1.64015 18.0434 1.81923 18.0434 2.04018V2.46379C17.1422 2.62381 16.4009 3.30466 16.4478 4.26819C16.5003 5.34829 17.4495 5.77667 18.3847 5.93033C18.9887 6.02941 19.81 6.24506 19.8274 6.99426C19.8428 7.64094 19.0332 7.87593 18.5068 7.88838C17.8781 7.90348 17.2121 7.61233 17.0484 6.95585C16.9957 6.74179 16.7795 6.61092 16.5657 6.66364C16.3516 6.71636 16.2208 6.93253 16.2735 7.14633C16.4865 8.00071 17.2013 8.52367 18.0437 8.65401V9.07259C18.0437 9.29354 18.2228 9.47263 18.4437 9.47263C18.6647 9.47263 18.8438 9.29354 18.8438 9.07259V8.66196C19.7493 8.54195 20.6482 7.99461 20.6241 6.97572ZM15.4244 13.4513H21.0578V19.3715H15.4244C13.7965 19.3715 12.4641 18.0395 12.4641 16.4113C12.4641 14.7833 13.7962 13.4513 15.4244 13.4513ZM15.5264 15.3526C14.9417 15.3526 14.4678 15.8266 14.4678 16.4113C14.4678 16.9959 14.9417 17.4699 15.5264 17.4699C16.1111 17.4699 16.585 16.9959 16.585 16.4113C16.585 15.8266 16.1111 15.3526 15.5264 15.3526ZM2.13635 8.82277H12.989C12.4162 7.86825 12.0866 6.75106 12.0866 5.55678C12.0866 5.21424 12.1142 4.87805 12.1664 4.55007H2.13635C0.961409 4.55007 0 5.51148 0 6.68642C0 7.86136 0.961409 8.82277 2.13635 8.82277Z" fill="#064658"/>
</svg>
