<svg width="60" height="60" viewBox="0 0 60 60" fill="none" xmlns="http://www.w3.org/2000/svg">
<path d="M44.4345 15L31.5671 24.5209L33.9599 18.9099L44.4345 15Z" fill="#E17726" stroke="#E17726" stroke-width="0.25" stroke-linecap="round" stroke-linejoin="round"/>
<path d="M14.7542 15L27.5069 24.6098L25.2288 18.9099L14.7542 15Z" fill="#E27625" stroke="#E27625" stroke-width="0.25" stroke-linecap="round" stroke-linejoin="round"/>
<path d="M39.8011 37.0742L36.3774 42.3044L43.7084 44.3228L45.8084 37.1885L39.8011 37.0742Z" fill="#E27625" stroke="#E27625" stroke-width="0.25" stroke-linecap="round" stroke-linejoin="round"/>
<path d="M13.3921 37.1885L15.4794 44.3228L22.7976 42.3044L19.3866 37.0742L13.3921 37.1885Z" fill="#E27625" stroke="#E27625" stroke-width="0.25" stroke-linecap="round" stroke-linejoin="round"/>
<path d="M22.403 28.2426L20.3667 31.3147L27.6213 31.6448L27.3795 23.8376L22.403 28.2426Z" fill="#E27625" stroke="#E27625" stroke-width="0.25" stroke-linecap="round" stroke-linejoin="round"/>
<path d="M36.7848 28.2393L31.7321 23.7455L31.5667 31.6415L38.8212 31.3114L36.7848 28.2393Z" fill="#E27625" stroke="#E27625" stroke-width="0.25" stroke-linecap="round" stroke-linejoin="round"/>
<path d="M22.7976 42.3037L27.1885 40.1838L23.4085 37.2386L22.7976 42.3037Z" fill="#E27625" stroke="#E27625" stroke-width="0.25" stroke-linecap="round" stroke-linejoin="round"/>
<path d="M31.9995 40.1838L36.3776 42.3037L35.7794 37.2386L31.9995 40.1838Z" fill="#E27625" stroke="#E27625" stroke-width="0.25" stroke-linecap="round" stroke-linejoin="round"/>
<path d="M36.3776 42.3077L31.9995 40.1877L32.3558 43.0313L32.3176 44.2373L36.3776 42.3077Z" fill="#D5BFB2" stroke="#D5BFB2" stroke-width="0.25" stroke-linecap="round" stroke-linejoin="round"/>
<path d="M22.7976 42.3077L26.8704 44.2373L26.8449 43.0313L27.1885 40.1877L22.7976 42.3077Z" fill="#D5BFB2" stroke="#D5BFB2" stroke-width="0.25" stroke-linecap="round" stroke-linejoin="round"/>
<path d="M26.9469 35.3626L23.3069 34.2963L25.8778 33.1157L26.9469 35.3626Z" fill="#233447" stroke="#233447" stroke-width="0.25" stroke-linecap="round" stroke-linejoin="round"/>
<path d="M32.2415 35.3626L33.3106 33.1157L35.8942 34.2963L32.2415 35.3626Z" fill="#233447" stroke="#233447" stroke-width="0.25" stroke-linecap="round" stroke-linejoin="round"/>
<path d="M22.7976 42.3044L23.434 37.0742L19.3867 37.1885L22.7976 42.3044Z" fill="#CC6228" stroke="#CC6228" stroke-width="0.25" stroke-linecap="round" stroke-linejoin="round"/>
<path d="M35.7542 37.0742L36.3778 42.3044L39.8014 37.1885L35.7542 37.0742Z" fill="#CC6228" stroke="#CC6228" stroke-width="0.25" stroke-linecap="round" stroke-linejoin="round"/>
<path d="M38.8212 31.3108L31.5667 31.6408L32.2412 35.3604L33.3103 33.1134L35.8939 34.294L38.8212 31.3108Z" fill="#CC6228" stroke="#CC6228" stroke-width="0.25" stroke-linecap="round" stroke-linejoin="round"/>
<path d="M23.3067 34.294L25.8776 33.1134L26.9467 35.3604L27.6213 31.6408L20.3667 31.3108L23.3067 34.294Z" fill="#CC6228" stroke="#CC6228" stroke-width="0.25" stroke-linecap="round" stroke-linejoin="round"/>
<path d="M20.3667 31.3108L23.4085 37.2392L23.3067 34.294L20.3667 31.3108Z" fill="#E27525" stroke="#E27525" stroke-width="0.25" stroke-linecap="round" stroke-linejoin="round"/>
<path d="M35.8941 34.294L35.7795 37.2392L38.8214 31.3108L35.8941 34.294Z" fill="#E27525" stroke="#E27525" stroke-width="0.25" stroke-linecap="round" stroke-linejoin="round"/>
<path d="M27.6214 31.6428L26.9468 35.3624L27.7995 39.7547L27.9904 33.966L27.6214 31.6428Z" fill="#E27525" stroke="#E27525" stroke-width="0.25" stroke-linecap="round" stroke-linejoin="round"/>
<path d="M31.5669 31.6428L31.2104 33.9533L31.3887 39.7547L32.2414 35.3624L31.5669 31.6428Z" fill="#E27525" stroke="#E27525" stroke-width="0.25" stroke-linecap="round" stroke-linejoin="round"/>
<path d="M32.2414 35.3624L31.3887 39.7547L31.9996 40.1863L35.7796 37.2412L35.8942 34.296L32.2414 35.3624Z" fill="#F5841F" stroke="#F5841F" stroke-width="0.25" stroke-linecap="round" stroke-linejoin="round"/>
<path d="M23.3069 34.296L23.4088 37.2412L27.1887 40.1863L27.7996 39.7547L26.9469 35.3624L23.3069 34.296Z" fill="#F5841F" stroke="#F5841F" stroke-width="0.25" stroke-linecap="round" stroke-linejoin="round"/>
<path d="M32.3176 44.2381L32.3558 43.0321L32.0249 42.7528H27.1631L26.8449 43.0321L26.8704 44.2381L22.7976 42.3085L24.2231 43.4764L27.1122 45.4694H32.063L34.9649 43.4764L36.3776 42.3085L32.3176 44.2381Z" fill="#C0AC9D" stroke="#C0AC9D" stroke-width="0.25" stroke-linecap="round" stroke-linejoin="round"/>
<path d="M31.9995 40.1853L31.3886 39.7538H27.7995L27.1886 40.1853L26.845 43.029L27.1632 42.7497H32.025L32.3559 43.029L31.9995 40.1853Z" fill="#161616" stroke="#161616" stroke-width="0.25" stroke-linecap="round" stroke-linejoin="round"/>
<path d="M44.9813 25.1429L46.0631 19.8874L44.434 15L31.9995 24.2036L36.7849 28.2404L43.5431 30.2081L45.0322 28.469L44.3832 27.9992L45.414 27.0599L44.625 26.4505L45.6559 25.6634L44.9813 25.1429Z" fill="#763E1A" stroke="#763E1A" stroke-width="0.25" stroke-linecap="round" stroke-linejoin="round"/>
<path d="M13.125 19.8874L14.2195 25.1429L13.5196 25.6634L14.5632 26.4505L13.7741 27.0599L14.805 27.9992L14.1559 28.469L15.645 30.2081L22.4032 28.2404L27.1886 24.2036L14.7541 15L13.125 19.8874Z" fill="#763E1A" stroke="#763E1A" stroke-width="0.25" stroke-linecap="round" stroke-linejoin="round"/>
<path d="M43.5432 30.2076L36.785 28.24L38.8214 31.3121L35.7795 37.2404L39.8014 37.1896H45.8086L43.5432 30.2076Z" fill="#F5841F" stroke="#F5841F" stroke-width="0.25" stroke-linecap="round" stroke-linejoin="round"/>
<path d="M22.403 28.24L15.6448 30.2076L13.3921 37.1896H19.3866L23.4084 37.2404L20.3666 31.3121L22.403 28.24Z" fill="#F5841F" stroke="#F5841F" stroke-width="0.25" stroke-linecap="round" stroke-linejoin="round"/>
<path d="M31.5667 31.6418L31.9994 24.2028L33.9594 18.9092H25.2285L27.1885 24.2028L27.6212 31.6418L27.7867 33.9776L27.7994 39.7537H31.3885L31.4012 33.9776L31.5667 31.6418Z" fill="#F5841F" stroke="#F5841F" stroke-width="0.25" stroke-linecap="round" stroke-linejoin="round"/>
</svg>
